<svg width="87" height="71" viewBox="0 0 87 71" fill="none" xmlns="http://www.w3.org/2000/svg">
<path d="M86.8989 43.3846C84.0066 20.2462 62.7963 4.82051 52.5527 0L48.9375 7.23077L67.0143 36.1538C48.2141 34.7077 44.7195 47.6026 45.3222 54.2308C48.9375 68.6923 60.9887 70.5 67.0143 70.5C84.3681 70.5 87.5014 52.4231 86.8989 43.3846Z" fill="#F9F9F9"/>
<path d="M41.6391 43.3846C38.7468 20.2462 17.5366 4.82051 7.29296 0L3.67777 7.23077L21.7545 36.1538C2.95435 34.7077 -0.540306 47.6026 0.0623894 54.2308C3.67777 68.6923 15.7289 70.5 21.7545 70.5C39.1083 70.5 42.2417 52.4231 41.6391 43.3846Z" fill="#F9F9F9"/>
</svg>
